{
  "accessors": [
    {
      "bufferView": 2,
      "componentType": 5126,
      "count": 8,
      "max": [
        2455.1884765625,
        62.203636169433594,
        0.0
      ],
      "min": [
        -76.0356674194336,
        -1182.7987060546875,
        0.0
      ],
      "type": "VEC3"
    },
    {
      "bufferView": 2,
      "byteOffset": 96,
      "componentType": 5126,
      "count": 8,
      "max": [
        0.0,
        -0.0,
        1.0
      ],
      "min": [
        0.0,
        -0.0,
        1.0
      ],
      "type": "VEC3"
    },
    {
      "bufferView": 1,
      "componentType": 5126,
      "count": 8,
      "max": [
        84.3741455078125,
        0.0
      ],
      "min": [
        0.0,
        -41.50008010864258
      ],
      "type": "VEC2"
    },
    {
      "bufferView": 0,
      "componentType": 5125,
      "count": 24,
      "type": "SCALAR"
    },
    {
      "bufferView": 2,
      "byteOffset": 192,
      "componentType": 5126,
      "count": 4,
      "max": [
        2379.162109375,
        -9.482751846313477,
        0.0
      ],
      "min": [
        1.16204833984375,
        -1104.4830322265625,
        0.0
      ],
      "type": "VEC3"
    },
    {
      "bufferView": 2,
      "byteOffset": 240,
      "componentType": 5126,
      "count": 4,
      "max": [
        0.0,
        -0.0,
        1.0
      ],
      "min": [
        0.0,
        -0.0,
        1.0
      ],
      "type": "VEC3"
    },
    {
      "bufferView": 0,
      "byteOffset": 96,
      "componentType": 5125,
      "count": 6,
      "type": "SCALAR"
    },
    {
      "bufferView": 2,
      "byteOffset": 288,
      "componentType": 5126,
      "count": 224,
      "max": [
        2443.41357421875,
        50.4288215637207,
        626.6000366210938
      ],
      "min": [
        -64.26085662841797,
        -1171.0238037109375,
        591.9620971679688
      ],
      "type": "VEC3"
    },
    {
      "bufferView": 2,
      "byteOffset": 2976,
      "componentType": 5126,
      "count": 224,
      "max": [
        0.7071070671081543,
        0.70710688829422,
        0.7658616900444031
      ],
      "min": [
        -0.7071070671081543,
        -0.70710688829422,
        -0.7658616900444031
      ],
      "type": "VEC3"
    },
    {
      "bufferView": 1,
      "byteOffset": 64,
      "componentType": 5126,
      "count": 224,
      "max": [
        0.8181260228157043,
        0.9291489720344543
      ],
      "min": [
        0.038134001195430756,
        0.08810000121593475
      ],
      "type": "VEC2"
    },
    {
      "bufferView": 0,
      "byteOffset": 120,
      "componentType": 5125,
      "count": 336,
      "type": "SCALAR"
    },
    {
      "bufferView": 2,
      "byteOffset": 5664,
      "componentType": 5126,
      "count": 3824,
      "max": [
        2447.768310546875,
        54.783668518066406,
        626.5978393554688
      ],
      "min": [
        -68.6156997680664,
        -1175.378662109375,
        592.1001586914063
      ],
      "type": "VEC3"
    },
    {
      "bufferView": 2,
      "byteOffset": 51552,
      "componentType": 5126,
      "count": 3824,
      "max": [
        0.7595252990722656,
        0.7595252990722656,
        0.895463764667511
      ],
      "min": [
        -0.7595252990722656,
        -0.7595252990722656,
        -0.7662115097045898
      ],
      "type": "VEC3"
    },
    {
      "bufferView": 0,
      "byteOffset": 1464,
      "componentType": 5125,
      "count": 8544,
      "type": "SCALAR"
    },
    {
      "bufferView": 2,
      "byteOffset": 97440,
      "componentType": 5126,
      "count": 9962,
      "max": [
        2433.7060546875,
        40.7212028503418,
        618.5059204101563
      ],
      "min": [
        -54.55323791503906,
        -1161.316162109375,
        597.9617309570313
      ],
      "type": "VEC3"
    },
    {
      "bufferView": 2,
      "byteOffset": 216984,
      "componentType": 5126,
      "count": 9962,
      "max": [
        0.964221715927124,
        0.964221715927124,
        0.9708680510520935
      ],
      "min": [
        -0.9642216563224792,
        -0.9642216563224792,
        -0.9582079648971558
      ],
      "type": "VEC3"
    },
    {
      "bufferView": 0,
      "byteOffset": 35640,
      "componentType": 5125,
      "count": 18648,
      "type": "SCALAR"
    },
    {
      "bufferView": 2,
      "byteOffset": 336528,
      "componentType": 5126,
      "count": 2276,
      "max": [
        2433.99365234375,
        41.00895690917969,
        618.5059204101563
      ],
      "min": [
        -54.84099578857422,
        -1161.6038818359375,
        597.9617309570313
      ],
      "type": "VEC3"
    },
    {
      "bufferView": 2,
      "byteOffset": 363840,
      "componentType": 5126,
      "count": 2276,
      "max": [
        0.8417211771011353,
        0.8417211174964905,
        0.7069026231765747
      ],
      "min": [
        -0.8417210578918457,
        -0.8417211174964905,
        -0.7495437860488892
      ],
      "type": "VEC3"
    },
    {
      "bufferView": 0,
      "byteOffset": 110232,
      "componentType": 5125,
      "count": 5541,
      "type": "SCALAR"
    },
    {
      "bufferView": 2,
      "byteOffset": 391152,
      "componentType": 5126,
      "count": 132,
      "max": [
        2420.502197265625,
        28.07364273071289,
        0.0
      ],
      "min": [
        -41.34960174560547,
        -1148.112548828125,
        0.0
      ],
      "type": "VEC3"
    },
    {
      "bufferView": 2,
      "byteOffset": 392736,
      "componentType": 5126,
      "count": 132,
      "max": [
        0.0,
        -0.0,
        -1.0
      ],
      "min": [
        0.0,
        -0.0,
        -1.0
      ],
      "type": "VEC3"
    },
    {
      "bufferView": 1,
      "byteOffset": 1856,
      "componentType": 5126,
      "count": 132,
      "max": [
        0.9998999834060669,
        0.9998999834060669
      ],
      "min": [
        9.999999747378752e-05,
        9.999999747378752e-05
      ],
      "type": "VEC2"
    },
    {
      "bufferView": 0,
      "byteOffset": 132396,
      "componentType": 5125,
      "count": 384,
      "type": "SCALAR"
    },
    {
      "bufferView": 2,
      "byteOffset": 394320,
      "componentType": 5126,
      "count": 264,
      "max": [
        2420.502197265625,
        28.07364273071289,
        600.9615478515625
      ],
      "min": [
        -41.34960174560547,
        -1148.112548828125,
        0.0
      ],
      "type": "VEC3"
    },
    {
      "bufferView": 2,
      "byteOffset": 397488,
      "componentType": 5126,
      "count": 264,
      "max": [
        1.0,
        1.0,
        0.0
      ],
      "min": [
        -1.0,
        -1.0,
        0.0
      ],
      "type": "VEC3"
    },
    {
      "bufferView": 1,
      "byteOffset": 2912,
      "componentType": 5126,
      "count": 264,
      "max": [
        1.0,
        1.0
      ],
      "min": [
        0.0,
        0.0
      ],
      "type": "VEC2"
    },
    {
      "bufferView": 0,
      "byteOffset": 133932,
      "componentType": 5125,
      "count": 768,
      "type": "SCALAR"
    },
    {
      "bufferView": 2,
      "byteOffset": 400656,
      "componentType": 5126,
      "count": 4968,
      "max": [
        1158.5614013671875,
        -49.89651870727539,
        92.0
      ],
      "min": [
        1147.8975830078125,
        -1054.7283935546875,
        30.0
      ],
      "type": "VEC3"
    },
    {
      "bufferView": 2,
      "byteOffset": 460272,
      "componentType": 5126,
      "count": 4968,
      "max": [
        0.9983584880828857,
        0.9999432563781738,
        0.27054986357688904
      ],
      "min": [
        -0.997441291809082,
        -0.9998814463615417,
        -0.9132835865020752
      ],
      "type": "VEC3"
    },
    {
      "bufferView": 0,
      "byteOffset": 137004,
      "componentType": 5125,
      "count": 19152,
      "type": "SCALAR"
    },
    {
      "bufferView": 2,
      "byteOffset": 519888,
      "componentType": 5126,
      "count": 1600,
      "max": [
        2426.567626953125,
        33.582828521728516,
        607.909423828125
      ],
      "min": [
        -47.41486358642578,
        -1154.1778564453125,
        606.0509643554688
      ],
      "type": "VEC3"
    },
    {
      "bufferView": 2,
      "byteOffset": 539088,
      "componentType": 5126,
      "count": 1600,
      "max": [
        0.9932534694671631,
        0.9932534694671631,
        0.9832947850227356
      ],
      "min": [
        -0.9932534694671631,
        -0.9932534694671631,
        -0.7658616900444031
      ],
      "type": "VEC3"
    },
    {
      "bufferView": 0,
      "byteOffset": 213612,
      "componentType": 5125,
      "count": 6048,
      "type": "SCALAR"
    },
    {
      "bufferView": 2,
      "byteOffset": 558288,
      "componentType": 5126,
      "count": 110,
      "max": [
        1159.4990234375,
        -49.11712646484375,
        95.0
      ],
      "min": [
        1146.70703125,
        -1055.56494140625,
        0.0
      ],
      "type": "VEC3"
    },
    {
      "bufferView": 2,
      "byteOffset": 559608,
      "componentType": 5126,
      "count": 110,
      "max": [
        1.0,
        1.0,
        1.0
      ],
      "min": [
        -1.0,
        -1.0,
        -1.0
      ],
      "type": "VEC3"
    },
    {
      "bufferView": 0,
      "byteOffset": 237804,
      "componentType": 5125,
      "count": 324,
      "type": "SCALAR"
    },
    {
      "bufferView": 2,
      "byteOffset": 560928,
      "componentType": 5126,
      "count": 132,
      "max": [
        2420.502197265625,
        28.07364273071289,
        600.9615478515625
      ],
      "min": [
        -41.34960174560547,
        -1148.112548828125,
        600.9615478515625
      ],
      "type": "VEC3"
    },
    {
      "bufferView": 2,
      "byteOffset": 562512,
      "componentType": 5126,
      "count": 132,
      "max": [
        0.0,
        -0.0,
        1.0
      ],
      "min": [
        0.0,
        -0.0,
        1.0
      ],
      "type": "VEC3"
    },
    {
      "bufferView": 1,
      "byteOffset": 5024,
      "componentType": 5126,
      "count": 132,
      "max": [
        0.9998999834060669,
        0.9998999834060669
      ],
      "min": [
        9.999999747378752e-05,
        9.999999747378752e-05
      ],
      "type": "VEC2"
    },
    {
      "bufferView": 0,
      "byteOffset": 239100,
      "componentType": 5125,
      "count": 384,
      "type": "SCALAR"
    },
    {
      "bufferView": 2,
      "byteOffset": 564096,
      "componentType": 5126,
      "count": 334,
      "max": [
        2383.878173828125,
        -3.7572879791259766,
        5.0
      ],
      "min": [
        0.8781280517578125,
        -1103.757568359375,
        0.0
      ],
      "type": "VEC3"
    },
    {
      "bufferView": 2,
      "byteOffset": 568104,
      "componentType": 5126,
      "count": 334,
      "max": [
        1.0,
        1.0,
        1.0
      ],
      "min": [
        -1.0,
        -1.0,
        -1.0
      ],
      "type": "VEC3"
    },
    {
      "bufferView": 0,
      "byteOffset": 240636,
      "componentType": 5125,
      "count": 660,
      "type": "SCALAR"
    }
  ],
  "asset": {
    "extras": {
      "author": "kento_natural (https://sketchfab.com/kento_natural)",
      "license": "CC-BY-4.0 (http://creativecommons.org/licenses/by/4.0/)",
      "source": "https://sketchfab.com/3d-models/cancha-tenis-2d77d5254e764be1a6956eab3122ce92",
      "title": "Cancha Tenis"
    },
    "generator": "Sketchfab-12.66.0",
    "version": "2.0"
  },
  "bufferViews": [
    {
      "buffer": 0,
      "byteLength": 243276,
      "name": "floatBufferViews",
      "target": 34963
    },
    {
      "buffer": 0,
      "byteLength": 6080,
      "byteOffset": 243276,
      "byteStride": 8,
      "name": "floatBufferViews",
      "target": 34962
    },
    {
      "buffer": 0,
      "byteLength": 572112,
      "byteOffset": 249356,
      "byteStride": 12,
      "name": "floatBufferViews",
      "target": 34962
    }
  ],
  "buffers": [
    {
      "byteLength": 821468,
      "uri": "scene.bin"
    }
  ],
  "materials": [
    {
      "doubleSided": true,
      "name": "material",
      "pbrMetallicRoughness": {
        "baseColorFactor": [
          0.09760766351008722,
          0.08147428912700161,
          0.08147428912700161,
          1.0
        ],
        "metallicFactor": 0.0,
        "roughnessFactor": 0.6
      }
    },
    {
      "doubleSided": true,
      "name": "material_1",
      "pbrMetallicRoughness": {
        "baseColorFactor": [
          0.1681438084417918,
          0.14237085748771408,
          0.14237085748771408,
          1.0
        ],
        "metallicFactor": 0.0,
        "roughnessFactor": 0.6
      }
    },
    {
      "doubleSided": true,
      "name": "bone",
      "pbrMetallicRoughness": {
        "baseColorFactor": [
          0.940665205793594,
          0.9052496061859041,
          0.0040894825417448185,
          1.0
        ],
        "metallicFactor": 0.0,
        "roughnessFactor": 0.6
      }
    },
    {
      "doubleSided": true,
      "name": "bottom",
      "pbrMetallicRoughness": {
        "metallicFactor": 0.0,
        "roughnessFactor": 0.6
      }
    },
    {
      "doubleSided": true,
      "name": "cylinder",
      "pbrMetallicRoughness": {
        "baseColorFactor": [
          0.0030822762267459346,
          0.0022912495844837036,
          0.0022912495844837036,
          1.0
        ],
        "metallicFactor": 0.0,
        "roughnessFactor": 0.6
      }
    },
    {
      "doubleSided": true,
      "name": "default",
      "pbrMetallicRoughness": {
        "metallicFactor": 0.0,
        "roughnessFactor": 0.6
      }
    },
    {
      "doubleSided": true,
      "name": "ground_1",
      "pbrMetallicRoughness": {
        "baseColorFactor": [
          0.006842169950444906,
          0.16111610572391852,
          0.005311132095133053,
          1.0
        ],
        "metallicFactor": 0.0,
        "roughnessFactor": 0.6
      }
    },
    {
      "doubleSided": true,
      "name": "metal",
      "pbrMetallicRoughness": {
        "metallicFactor": 0.0,
        "roughnessFactor": 0.6
      }
    },
    {
      "doubleSided": true,
      "name": "redwoodstain",
      "pbrMetallicRoughness": {
        "metallicFactor": 0.0,
        "roughnessFactor": 0.6
      }
    },
    {
      "doubleSided": true,
      "name": "room_12_68",
      "pbrMetallicRoughness": {
        "baseColorFactor": [
          0.016478866336953942,
          0.2019596836332689,
          0.019886270858064294,
          1.0
        ],
        "metallicFactor": 0.0,
        "roughnessFactor": 0.6
      }
    },
    {
      "doubleSided": true,
      "name": "material_10",
      "pbrMetallicRoughness": {
        "metallicFactor": 0.0,
        "roughnessFactor": 0.6
      }
    },
    {
      "doubleSided": true,
      "name": "wall_1_2",
      "pbrMetallicRoughness": {
        "metallicFactor": 0.0,
        "roughnessFactor": 0.6
      }
    }
  ],
  "meshes": [
    {
      "name": "Object_0",
      "primitives": [
        {
          "attributes": {
            "NORMAL": 1,
            "POSITION": 0,
            "TEXCOORD_0": 2
          },
          "indices": 3,
          "material": 6,
          "mode": 4
        }
      ]
    },
    {
      "name": "Object_1",
      "primitives": [
        {
          "attributes": {
            "NORMAL": 5,
            "POSITION": 4
          },
          "indices": 6,
          "material": 9,
          "mode": 4
        }
      ]
    },
    {
      "name": "Object_2",
      "primitives": [
        {
          "attributes": {
            "NORMAL": 8,
            "POSITION": 7,
            "TEXCOORD_0": 9
          },
          "indices": 10,
          "material": 0,
          "mode": 4
        }
      ]
    },
    {
      "name": "Object_3",
      "primitives": [
        {
          "attributes": {
            "NORMAL": 12,
            "POSITION": 11
          },
          "indices": 13,
          "material": 1,
          "mode": 4
        }
      ]
    },
    {
      "name": "Object_4",
      "primitives": [
        {
          "attributes": {
            "NORMAL": 15,
            "POSITION": 14
          },
          "indices": 16,
          "material": 2,
          "mode": 4
        }
      ]
    },
    {
      "name": "Object_5",
      "primitives": [
        {
          "attributes": {
            "NORMAL": 18,
            "POSITION": 17
          },
          "indices": 19,
          "material": 2,
          "mode": 4
        }
      ]
    },
    {
      "name": "Object_6",
      "primitives": [
        {
          "attributes": {
            "NORMAL": 21,
            "POSITION": 20,
            "TEXCOORD_0": 22
          },
          "indices": 23,
          "material": 3,
          "mode": 4
        }
      ]
    },
    {
      "name": "Object_7",
      "primitives": [
        {
          "attributes": {
            "NORMAL": 25,
            "POSITION": 24,
            "TEXCOORD_0": 26
          },
          "indices": 27,
          "material": 4,
          "mode": 4
        }
      ]
    },
    {
      "name": "Object_8",
      "primitives": [
        {
          "attributes": {
            "NORMAL": 29,
            "POSITION": 28
          },
          "indices": 30,
          "material": 5,
          "mode": 4
        }
      ]
    },
    {
      "name": "Object_9",
      "primitives": [
        {
          "attributes": {
            "NORMAL": 32,
            "POSITION": 31
          },
          "indices": 33,
          "material": 7,
          "mode": 4
        }
      ]
    },
    {
      "name": "Object_10",
      "primitives": [
        {
          "attributes": {
            "NORMAL": 35,
            "POSITION": 34
          },
          "indices": 36,
          "material": 8,
          "mode": 4
        }
      ]
    },
    {
      "name": "Object_11",
      "primitives": [
        {
          "attributes": {
            "NORMAL": 38,
            "POSITION": 37,
            "TEXCOORD_0": 39
          },
          "indices": 40,
          "material": 10,
          "mode": 4
        }
      ]
    },
    {
      "name": "Object_12",
      "primitives": [
        {
          "attributes": {
            "NORMAL": 42,
            "POSITION": 41
          },
          "indices": 43,
          "material": 11,
          "mode": 4
        }
      ]
    }
  ],
  "nodes": [
    {
      "children": [
        1
      ],
      "matrix": [
        1.0,
        0.0,
        0.0,
        0.0,
        0.0,
        2.220446049250313e-16,
        -1.0,
        0.0,
        0.0,
        1.0,
        2.220446049250313e-16,
        0.0,
        0.0,
        0.0,
        0.0,
        1.0
      ],
      "name": "Sketchfab_model"
    },
    {
      "children": [
        2,
        3,
        4,
        5,
        6,
        7,
        8,
        9,
        10,
        11,
        12,
        13,
        14
      ],
      "name": "cancha tenis fuente.obj.cleaner.materialmerger.gles"
    },
    {
      "mesh": 0,
      "name": "Object_2"
    },
    {
      "mesh": 1,
      "name": "Object_3"
    },
    {
      "mesh": 2,
      "name": "Object_4"
    },
    {
      "mesh": 3,
      "name": "Object_5"
    },
    {
      "mesh": 4,
      "name": "Object_6"
    },
    {
      "mesh": 5,
      "name": "Object_7"
    },
    {
      "mesh": 6,
      "name": "Object_8"
    },
    {
      "mesh": 7,
      "name": "Object_9"
    },
    {
      "mesh": 8,
      "name": "Object_10"
    },
    {
      "mesh": 9,
      "name": "Object_11"
    },
    {
      "mesh": 10,
      "name": "Object_12"
    },
    {
      "mesh": 11,
      "name": "Object_13"
    },
    {
      "mesh": 12,
      "name": "Object_14"
    }
  ],
  "scene": 0,
  "scenes": [
    {
      "name": "Sketchfab_Scene",
      "nodes": [
        0
      ]
    }
  ]
}
